<svg width="8" height="12" viewBox="0 0 8 12" fill="none" xmlns="http://www.w3.org/2000/svg">
<path fill-rule="evenodd" clip-rule="evenodd" d="M4.63641 2.45428C4.34708 2.45428 4.0696 2.33935 3.86502 2.13476C3.66044 1.93017 3.5455 1.6527 3.5455 1.36337C3.5455 1.07404 3.66044 0.796566 3.86502 0.591983C4.0696 0.387396 4.34708 0.272461 4.63641 0.272461C4.92574 0.272461 5.20321 0.387396 5.4078 0.591983C5.61238 0.796566 5.72731 1.07404 5.72731 1.36337C5.72731 1.6527 5.61238 1.93017 5.4078 2.13476C5.20321 2.33935 4.92574 2.45428 4.63641 2.45428ZM1.4275 4.20628L3.17568 2.93646C3.37193 2.79284 3.61063 2.7191 3.85368 2.72701C4.15014 2.7344 4.43693 2.83398 4.67418 3.01189C4.91143 3.1898 5.08736 3.43722 5.1775 3.71973C5.27895 4.03773 5.37168 4.25264 5.45567 4.36446C5.70947 4.70308 6.03871 4.97788 6.41725 5.16706C6.7958 5.35623 7.21323 5.45455 7.6364 5.45428V6.54519C7.07311 6.54579 6.51669 6.42153 6.00718 6.18132C5.49767 5.9411 5.04779 5.59086 4.68986 5.15592L4.30968 7.31319L5.43386 8.25682L6.6464 11.5885L5.62094 11.9616L4.50823 8.90482L2.65914 7.35301C2.50739 7.2305 2.39127 7.06948 2.32287 6.88686C2.25447 6.70419 2.23629 6.50652 2.27023 6.31446L2.54786 4.74082L2.17859 5.00919L1.01841 6.60628L0.135864 5.96482L1.41823 4.19973L1.4275 4.20628ZM1.26223 11.733L3.01532 9.64392L3.43368 8.72701L2.45677 7.90882L2.04986 9.09792L0.426592 11.0321L1.26223 11.733Z" fill="black"/>
</svg>
